<svg xmlns="http://www.w3.org/2000/svg" viewBox="0 0 417.86 450.6"><defs><style>.cls-1,.cls-2{fill:none;stroke-width:5px;}.cls-1,.cls-2,.cls-3,.cls-4{stroke:#fff;}.cls-1,.cls-3{stroke-miterlimit:10;fill-rule:evenodd;opacity:0;}.cls-2,.cls-4{stroke-linecap:round;stroke-linejoin:round;}.cls-3,.cls-4{fill:#ed7a23;stroke-width:2px;}.cls-5{font-size:12px;fill:#fff;font-family:MicrosoftJhengHeiBold, Microsoft JhengHei;}</style></defs><g id="南港"><g id="南港區"><polygon class="cls-1" points="22.54 328.94 24.54 325.51 30.83 315.23 45.68 305.8 55.4 274.09 64.82 262.09 77.68 252.95 80.25 244.67 70.25 220.67 57.97 200.67 50.82 200.1 30.83 181.81 31.4 172.1 29.97 167.25 29.11 163.25 29.68 150.39 29.4 146.96 54.25 139.53 74.82 124.39 87.96 111.25 104.25 116.68 140.24 116.68 158.81 106.97 166.24 92.68 175.96 91.82 183.67 94.68 188.24 92.11 201.38 96.68 210.81 108.68 212.52 112.97 213.09 114.97 217.38 122.68 220.52 127.53 221.95 130.39 221.95 132.39 220.24 133.25 218.52 133.82 217.66 132.68 215.95 131.53 214.24 129.53 211.38 127.25 209.09 126.11 206.24 126.39 205.09 127.25 204.81 128.68 205.67 131.82 207.38 135.25 208.81 137.82 208.52 139.53 206.81 142.96 205.09 142.39 201.95 143.53 197.67 145.82 195.95 148.1 191.67 151.82 188.53 154.39 188.53 158.1 201.67 194.1 213.66 203.53 226.24 213.81 231.38 214.1 246.23 219.24 248.81 225.53 263.37 223.24 279.66 232.67 305.08 247.81 326.51 258.38 358.22 261.24 366.51 255.24 378.79 246.67 400.79 249.52 401.07 281.52 387.08 282.38 369.94 278.95 353.08 275.81 333.37 277.52 326.23 284.09 316.8 288.09 312.8 282.09 304.51 274.09 295.94 278.66 271.94 281.81 267.66 276.09 257.66 269.81 251.66 274.95 250.52 284.38 243.38 296.38 233.38 301.23 219.66 310.37 163.96 294.95 155.96 300.95 137.67 302.66 135.1 310.09 133.96 315.8 131.67 322.09 127.96 321.8 122.25 322.66 109.39 323.8 78.25 328.09 41.4 335.51 32.54 337.23 29.68 335.8 24.83 332.09 22.54 328.94"/><polygon class="cls-2" points="22.54 328.94 24.54 325.51 30.83 315.23 45.68 305.8 55.4 274.09 64.82 262.09 77.68 252.95 80.25 244.67 70.25 220.67 57.97 200.67 50.82 200.1 30.83 181.81 31.4 172.1 29.97 167.25 29.11 163.25 29.68 150.39 29.4 146.96 54.25 139.53 74.82 124.39 87.96 111.25 104.25 116.68 140.24 116.68 158.81 106.97 166.24 92.68 175.96 91.82 183.67 94.68 188.24 92.11 201.38 96.68 210.81 108.68 212.52 112.97 213.09 114.97 217.38 122.68 220.52 127.53 221.95 130.39 221.95 132.39 220.24 133.25 218.52 133.82 217.66 132.68 215.95 131.53 214.24 129.53 211.38 127.25 209.09 126.11 206.24 126.39 205.09 127.25 204.81 128.68 205.67 131.82 207.38 135.25 208.81 137.82 208.52 139.53 206.81 142.96 205.09 142.39 201.95 143.53 197.67 145.82 195.95 148.1 191.67 151.82 188.53 154.39 188.53 158.1 201.67 194.1 213.66 203.53 226.24 213.81 231.38 214.1 246.23 219.24 248.81 225.53 263.37 223.24 279.66 232.67 305.08 247.81 326.51 258.38 358.22 261.24 366.51 255.24 378.79 246.67 400.79 249.52 401.07 281.52 387.08 282.38 369.94 278.95 353.08 275.81 333.37 277.52 326.23 284.09 316.8 288.09 312.8 282.09 304.51 274.09 295.94 278.66 271.94 281.81 267.66 276.09 257.66 269.81 251.66 274.95 250.52 284.38 243.38 296.38 233.38 301.23 219.66 310.37 163.96 294.95 155.96 300.95 137.67 302.66 135.1 310.09 133.96 315.8 131.67 322.09 127.96 321.8 122.25 322.66 109.39 323.8 78.25 328.09 41.4 335.51 32.54 337.23 29.68 335.8 24.83 332.09 22.54 328.94"/></g><g id="中研"><polygon class="cls-3" points="162.53 172.1 166.24 171.53 166.53 164.96 167.96 164.67 176.24 164.67 184.24 163.82 189.95 161.82 191.67 166.67 201.67 194.1 213.66 203.53 226.24 213.81 231.38 214.1 246.23 219.24 248.81 225.53 263.37 223.24 279.66 232.67 305.08 247.81 326.51 258.38 358.22 261.24 366.51 255.24 378.79 246.67 400.79 249.52 401.07 281.52 387.08 282.38 369.94 278.95 353.08 275.81 333.37 277.52 326.23 284.09 316.8 288.09 312.8 282.09 304.51 274.09 295.94 278.66 271.94 281.81 267.66 276.09 257.66 269.81 251.66 274.95 250.52 284.38 243.38 296.38 233.38 301.23 219.66 310.37 163.96 294.95 155.96 300.95 137.67 302.66 135.1 310.09 133.96 315.8 131.67 322.09 127.96 321.8 122.25 322.66 109.39 323.8 78.25 328.09 41.4 335.51 32.54 337.23 29.68 335.8 24.83 332.09 22.54 328.94 24.54 325.51 30.83 315.23 45.68 305.8 55.4 274.09 64.82 262.09 77.68 252.95 78.54 250.09 80.25 244.67 91.39 238.38 99.39 232.95 106.82 230.1 116.53 227.24 125.1 224.38 133.1 222.95 145.39 216.96 150.53 212.1 150.53 205.53 152.53 196.38 153.38 191.24 153.96 187.81 161.96 185.53 162.81 181.24 162.81 174.67 162.53 172.1"/><polygon class="cls-4" points="162.53 172.1 166.24 171.53 166.53 164.96 167.96 164.67 176.24 164.67 184.24 163.82 189.95 161.82 191.67 166.67 201.67 194.1 213.66 203.53 226.24 213.81 231.38 214.1 246.23 219.24 248.81 225.53 263.37 223.24 279.66 232.67 305.08 247.81 326.51 258.38 358.22 261.24 366.51 255.24 378.79 246.67 400.79 249.52 401.07 281.52 387.08 282.38 369.94 278.95 353.08 275.81 333.37 277.52 326.23 284.09 316.8 288.09 312.8 282.09 304.51 274.09 295.94 278.66 271.94 281.81 267.66 276.09 257.66 269.81 251.66 274.95 250.52 284.38 243.38 296.38 233.38 301.23 219.66 310.37 163.96 294.95 155.96 300.95 137.67 302.66 135.1 310.09 133.96 315.8 131.67 322.09 127.96 321.8 122.25 322.66 109.39 323.8 78.25 328.09 41.4 335.51 32.54 337.23 29.68 335.8 24.83 332.09 22.54 328.94 24.54 325.51 30.83 315.23 45.68 305.8 55.4 274.09 64.82 262.09 77.68 252.95 78.54 250.09 80.25 244.67 91.39 238.38 99.39 232.95 106.82 230.1 116.53 227.24 125.1 224.38 133.1 222.95 145.39 216.96 150.53 212.1 150.53 205.53 152.53 196.38 153.38 191.24 153.96 187.81 161.96 185.53 162.81 181.24 162.81 174.67 162.53 172.1"/></g><g id="三重埔"><polygon class="cls-3" points="175.96 91.82 183.67 94.68 188.24 92.11 201.38 96.68 210.81 108.68 212.52 112.97 213.09 114.97 217.38 122.68 220.52 127.53 221.95 130.39 221.95 132.39 220.24 133.25 218.52 133.82 217.66 132.68 215.95 131.53 214.24 129.53 211.38 127.25 209.09 126.11 206.24 126.39 205.09 127.25 204.81 128.68 205.67 131.82 207.38 135.25 208.81 137.82 208.52 139.53 206.81 142.96 205.09 142.39 201.95 143.53 197.67 145.82 195.95 148.1 191.67 151.82 188.53 154.39 188.53 158.1 189.95 161.82 184.24 163.82 176.24 164.67 167.96 164.67 166.53 164.96 166.24 171.53 162.53 172.1 162.81 174.67 162.81 181.24 161.96 185.53 153.96 187.81 153.38 191.24 152.53 196.38 150.53 205.53 150.53 212.1 145.39 216.96 133.1 222.95 129.1 223.53 123.96 224.67 119.67 215.24 115.39 208.38 111.96 200.96 112.25 192.39 114.82 185.53 116.82 164.1 124.53 159.53 145.39 163.25 145.96 160.39 141.1 158.1 134.53 152.96 133.67 145.53 138.24 144.1 132.82 116.68 135.39 116.68 140.24 116.68 140.53 116.68 142.24 115.54 158.81 106.97 166.24 92.68 175.96 91.82"/><polygon class="cls-4" points="175.96 91.82 183.67 94.68 188.24 92.11 201.38 96.68 210.81 108.68 212.52 112.97 213.09 114.97 217.38 122.68 220.52 127.53 221.95 130.39 221.95 132.39 220.24 133.25 218.52 133.82 217.66 132.68 215.95 131.53 214.24 129.53 211.38 127.25 209.09 126.11 206.24 126.39 205.09 127.25 204.81 128.68 205.67 131.82 207.38 135.25 208.81 137.82 208.52 139.53 206.81 142.96 205.09 142.39 201.95 143.53 197.67 145.82 195.95 148.1 191.67 151.82 188.53 154.39 188.53 158.1 189.95 161.82 184.24 163.82 176.24 164.67 167.96 164.67 166.53 164.96 166.24 171.53 162.53 172.1 162.81 174.67 162.81 181.24 161.96 185.53 153.96 187.81 153.38 191.24 152.53 196.38 150.53 205.53 150.53 212.1 145.39 216.96 133.1 222.95 129.1 223.53 123.96 224.67 119.67 215.24 115.39 208.38 111.96 200.96 112.25 192.39 114.82 185.53 116.82 164.1 124.53 159.53 145.39 163.25 145.96 160.39 141.1 158.1 134.53 152.96 133.67 145.53 138.24 144.1 132.82 116.68 135.39 116.68 140.24 116.68 140.53 116.68 142.24 115.54 158.81 106.97 166.24 92.68 175.96 91.82"/></g><g id="新庄仔"><polygon class="cls-3" points="59.4 135.82 61.11 134.39 74.82 124.39 87.96 111.25 104.25 116.68 132.82 116.68 138.24 144.1 133.67 145.53 134.53 152.96 141.1 158.1 145.96 160.39 145.39 163.25 124.53 159.53 116.82 164.1 114.82 185.53 112.25 192.39 111.96 200.96 115.39 208.38 119.67 215.24 123.96 224.67 116.53 227.24 107.39 230.1 103.96 231.24 102.25 224.95 96.25 218.38 93.68 212.96 93.68 206.96 91.11 198.38 88.82 192.39 86.82 186.39 89.96 184.1 89.11 182.1 84.25 182.39 82.82 180.67 71.97 176.67 68.54 164.67 89.11 159.53 87.11 154.96 67.11 158.39 59.4 135.82"/><polygon class="cls-4" points="59.4 135.82 61.11 134.39 74.82 124.39 87.96 111.25 104.25 116.68 132.82 116.68 138.24 144.1 133.67 145.53 134.53 152.96 141.1 158.1 145.96 160.39 145.39 163.25 124.53 159.53 116.82 164.1 114.82 185.53 112.25 192.39 111.96 200.96 115.39 208.38 119.67 215.24 123.96 224.67 116.53 227.24 107.39 230.1 103.96 231.24 102.25 224.95 96.25 218.38 93.68 212.96 93.68 206.96 91.11 198.38 88.82 192.39 86.82 186.39 89.96 184.1 89.11 182.1 84.25 182.39 82.82 180.67 71.97 176.67 68.54 164.67 89.11 159.53 87.11 154.96 67.11 158.39 59.4 135.82"/></g><g id="後山陂"><polygon class="cls-3" points="29.68 151.53 29.68 150.96 29.68 150.39 29.4 146.96 54.25 139.53 59.4 135.82 67.11 158.39 87.11 154.96 89.11 159.53 68.54 164.67 71.97 176.67 82.82 180.67 84.25 182.39 89.11 182.1 89.96 184.1 86.82 186.39 88.82 192.39 91.11 198.38 93.68 206.96 93.68 212.96 96.25 218.38 102.25 224.95 103.96 231.24 99.39 232.95 91.39 238.38 80.25 244.67 70.25 220.67 57.97 200.67 50.82 200.1 30.83 181.81 31.4 172.1 29.97 167.25 29.11 163.25 29.68 151.53"/><polygon class="cls-4" points="29.68 151.53 29.68 150.96 29.68 150.39 29.4 146.96 54.25 139.53 59.4 135.82 67.11 158.39 87.11 154.96 89.11 159.53 68.54 164.67 71.97 176.67 82.82 180.67 84.25 182.39 89.11 182.1 89.96 184.1 86.82 186.39 88.82 192.39 91.11 198.38 93.68 206.96 93.68 212.96 96.25 218.38 102.25 224.95 103.96 231.24 99.39 232.95 91.39 238.38 80.25 244.67 70.25 220.67 57.97 200.67 50.82 200.1 30.83 181.81 31.4 172.1 29.97 167.25 29.11 163.25 29.68 151.53"/></g><text class="cls-5" transform="translate(162.06 257.46)">中研</text><text class="cls-5" transform="translate(44.12 191.24)">後山陂</text><text class="cls-5" transform="translate(96.68 164.25)">新<tspan x="0" y="14.4">庄</tspan><tspan x="0" y="28.8">仔</tspan></text><text class="cls-5" transform="translate(150.56 145.62)">三重埔</text></g></svg>