<svg xmlns="http://www.w3.org/2000/svg" viewBox="0 0 417.86 450.6">
    <defs>
        <style>
            .cls-1,.cls-2{fill:#ed7a23;stroke-width:2px;}
            .cls-1,.cls-2,.cls-3,.cls-4{stroke:#fff;}
            .cls-1,.cls-3{stroke-miterlimit:10;fill-rule:evenodd;opacity:0;}
            .cls-2,.cls-4{stroke-linecap:round;stroke-linejoin:round;}
            .cls-3,.cls-4{fill:none;stroke-width:5px;}
            .cls-5{font-size:12px;fill:#fff;font-family:MicrosoftJhengHeiBold, Microsoft JhengHei;}
        </style>
    </defs>
    <g id="Zhongzheng">
        <g id="Gongguan">
            <polygon class="cls-1 subdistrict" points="279.35 311.27 283.71 315.09 297.88 329.26 337.67 372.86 348.57 387.03 352.38 397.93 316.96 414.83 309.87 411.01 309.87 410.47 303.33 409.92 296.25 408.29 283.17 402.29 270.63 393.03 261.91 379.95 249.37 361.42 238.47 346.7 228.12 333.62 224.85 330.89 221.03 327.08 235.75 316.72 254.82 310.73 272.81 312.36 279.35 311.27"/>
            <polygon class="cls-2 subdistrict" points="279.35 311.27 283.71 315.09 297.88 329.26 337.67 372.86 348.57 387.03 352.38 397.93 316.96 414.83 309.87 411.01 309.87 410.47 303.33 409.92 296.25 408.29 283.17 402.29 270.63 393.03 261.91 379.95 249.37 361.42 238.47 346.7 228.12 333.62 224.85 330.89 221.03 327.08 235.75 316.72 254.82 310.73 272.81 312.36 279.35 311.27"/>
        </g>
        <g id="Guting">
            <polygon class="cls-1 subdistrict" points="151.81 284.56 165.44 264.4 170.89 251.86 181.79 254.59 206.86 262.22 234.11 255.68 237.38 260.58 257 288.38 279.35 311.27 272.81 312.36 254.82 310.73 235.75 316.72 221.03 327.08 217.76 324.35 200.32 317.27 179.61 309.09 160.53 305.82 153.45 305.28 152.36 288.38 151.81 284.56"/>
            <polygon class="cls-2 subdistrict" points="151.81 284.56 165.44 264.4 170.89 251.86 181.79 254.59 206.86 262.22 234.11 255.68 237.38 260.58 257 288.38 279.35 311.27 272.81 312.36 254.82 310.73 235.75 316.72 221.03 327.08 217.76 324.35 200.32 317.27 179.61 309.09 160.53 305.82 153.45 305.28 152.36 288.38 151.81 284.56"/>
        </g>
        <g id="Dongmen">
            <polygon class="cls-1 subdistrict" points="220.49 69.28 223.21 69.82 225.94 69.82 250.46 71.46 273.9 78 289.71 83.45 295.16 85.08 319.14 92.17 316.96 198.45 288.62 196.27 271.18 192.45 251.01 181.55 242.29 195.72 237.93 204.44 235.75 209.9 187.24 185.91 210.68 91.08 220.49 69.28"/>
            <polygon class="cls-2 subdistrict" points="220.49 69.28 223.21 69.82 225.94 69.82 250.46 71.46 273.9 78 289.71 83.45 295.16 85.08 319.14 92.17 316.96 198.45 288.62 196.27 271.18 192.45 251.01 181.55 242.29 195.72 237.93 204.44 235.75 209.9 187.24 185.91 210.68 91.08 220.49 69.28"/>
        </g>
        <g id="Nanmen">
            <polygon class="cls-1 subdistrict" points="116.93 220.8 95.13 200.63 100.03 190.27 104.94 173.38 107.12 166.84 187.24 185.91 187.78 185.91 188.33 186.46 191.6 187.55 198.14 191.36 235.75 209.9 232.48 215.89 227.03 245.87 234.11 255.68 206.86 262.22 206.86 261.67 173.61 212.62 126.74 226.25 116.93 220.8"/>
            <polygon class="cls-2 subdistrict" points="116.93 220.8 95.13 200.63 100.03 190.27 104.94 173.38 107.12 166.84 187.24 185.91 187.78 185.91 188.33 186.46 191.6 187.55 198.14 191.36 235.75 209.9 232.48 215.89 227.03 245.87 234.11 255.68 206.86 262.22 206.86 261.67 173.61 212.62 126.74 226.25 116.93 220.8"/>
        </g>
        <g id="Chengnei">
            <polygon class="cls-1 subdistrict" points="124.02 101.98 124.56 98.71 131.1 74.73 132.74 73.09 134.92 70.91 136.55 69.28 138.19 67.64 145.27 64.92 149.63 54.01 181.24 61.65 203.04 66.55 210.68 67.64 217.76 69.28 220.49 69.28 210.68 91.08 187.24 185.91 107.12 166.84 116.93 129.23 124.02 101.98"/>
            <polygon class="cls-2 subdistrict" points="124.02 101.98 124.56 98.71 131.1 74.73 132.74 73.09 134.92 70.91 136.55 69.28 138.19 67.64 145.27 64.92 149.63 54.01 181.24 61.65 203.04 66.55 210.68 67.64 217.76 69.28 220.49 69.28 210.68 91.08 187.24 185.91 107.12 166.84 116.93 129.23 124.02 101.98"/>
        </g>
        <g id="Kanding">
            <polygon class="cls-1 subdistrict" points="105.48 209.9 116.93 220.8 126.74 226.25 173.61 212.62 206.86 261.67 181.79 254.59 170.89 251.86 165.44 264.4 151.81 284.56 126.74 276.93 84.23 232.24 84.77 217.53 88.04 214.25 95.13 200.63 103.3 208.26 105.48 209.9"/>
            <polygon class="cls-2 subdistrict" points="105.48 209.9 116.93 220.8 126.74 226.25 173.61 212.62 206.86 261.67 181.79 254.59 170.89 251.86 165.44 264.4 151.81 284.56 126.74 276.93 84.23 232.24 84.77 217.53 88.04 214.25 95.13 200.63 103.3 208.26 105.48 209.9"/>
        </g>
        <g id="Zhongzheng-District">
            <polygon class="cls-3" points="319.14 92.17 316.96 198.45 288.62 196.27 271.18 192.45 251.01 181.55 242.29 195.72 232.48 215.89 227.03 245.87 257 288.38 297.88 329.26 337.67 372.86 348.57 387.03 352.38 397.93 316.96 414.83 309.87 411.01 309.87 410.47 303.33 409.92 296.25 408.29 283.17 402.29 270.63 393.03 261.91 379.95 249.37 361.42 238.47 346.7 228.12 333.62 217.76 324.35 200.32 317.27 179.61 309.09 160.53 305.82 153.45 305.28 151.81 284.56 126.74 276.93 84.23 232.24 84.77 217.53 88.04 214.25 100.03 190.27 106.03 169.56 116.93 129.23 131.1 74.73 132.74 73.09 134.92 70.91 136.55 69.28 138.19 67.64 145.27 64.92 149.63 54.01 203.04 66.55 210.68 67.64 217.76 69.28 225.94 69.82 250.46 71.46 273.9 78 289.71 83.45 295.16 85.08 319.14 92.17"/>
            <polygon class="cls-4" points="319.14 92.17 316.96 198.45 288.62 196.27 271.18 192.45 251.01 181.55 242.29 195.72 232.48 215.89 227.03 245.87 257 288.38 297.88 329.26 337.67 372.86 348.57 387.03 352.38 397.93 316.96 414.83 309.87 411.01 309.87 410.47 303.33 409.92 296.25 408.29 283.17 402.29 270.63 393.03 261.91 379.95 249.37 361.42 238.47 346.7 228.12 333.62 217.76 324.35 200.32 317.27 179.61 309.09 160.53 305.82 153.45 305.28 151.81 284.56 126.74 276.93 84.23 232.24 84.77 217.53 88.04 214.25 100.03 190.27 106.03 169.56 116.93 129.23 131.1 74.73 132.74 73.09 134.92 70.91 136.55 69.28 138.19 67.64 145.27 64.92 149.63 54.01 203.04 66.55 210.68 67.64 217.76 69.28 225.94 69.82 250.46 71.46 273.9 78 289.71 83.45 295.16 85.08 319.14 92.17"/>
        </g>
        <text class="cls-5" transform="translate(148.44 130.14)">城內</text>
        <text class="cls-5" transform="translate(125.39 250.92)">崁頂</text>
        <text class="cls-5" transform="translate(158.4 203.47)">南門</text>
        <text class="cls-5" transform="translate(244.36 139.59)">東門</text>
        <text class="cls-5" transform="translate(196.91 292.37)">古亭</text>
        <text class="cls-5" transform="translate(275.41 362.78)">公館</text>
    </g>
</svg>