<svg xmlns="http://www.w3.org/2000/svg" viewBox="0 0 417.86 450.6">
    <defs>
        <style>
            .cls-1,.cls-2{fill:none;stroke-width:5px;}
            .cls-1,.cls-2,.cls-3,.cls-4{stroke:#fff;}
            .cls-1,.cls-3{stroke-miterlimit:10;fill-rule:evenodd;opacity:0;}
            .cls-2,.cls-4{stroke-linecap:round;stroke-linejoin:round;}
            .cls-3,.cls-4{fill:#ed7a23;stroke-width:2px;}
            .cls-5{font-size:12px;fill:#fff;font-family:MicrosoftJhengHeiBold,Microsoft JhengHei;}
        </style>
    </defs>
    <g id="Datong">
        <g id="Datong-District">
            <polygon class="cls-1"
                points="114.31 388.17 118.31 380.16 135.01 348.1 128.33 313.37 124.99 280.64 143.03 181.79 120.98 76.92 119.65 74.92 139.02 72.25 166.4 66.24 185.77 58.89 184.44 48.87 194.46 46.87 201.8 61.56 222.51 51.54 233.86 58.22 253.23 68.24 270.6 74.25 284.63 85.61 279.28 101.64 271.27 114.33 265.92 128.35 260.58 141.71 258.58 165.76 255.24 189.13 251.9 213.18 251.23 225.87 250.56 233.22 253.23 243.24 257.91 251.92 263.25 265.94 267.93 278.63 267.26 296 266.59 310.03 266.59 343.42 265.92 358.79 261.92 376.82 257.91 388.84 254.57 392.85 248.56 399.53 183.1 384.17 177.76 397.52 169.07 401.53 161.06 399.53 158.39 401.53 155.72 401.53 149.04 400.87 144.36 398.19 140.35 397.52 133.01 396.19 123.66 393.52 120.32 391.51 114.31 388.17" />
            <polygon class="cls-2"
                points="114.31 388.17 118.31 380.16 135.01 348.1 128.33 313.37 124.99 280.64 143.03 181.79 120.98 76.92 119.65 74.92 139.02 72.25 166.4 66.24 185.77 58.89 184.44 48.87 194.46 46.87 201.8 61.56 222.51 51.54 233.86 58.22 253.23 68.24 270.6 74.25 284.63 85.61 279.28 101.64 271.27 114.33 265.92 128.35 260.58 141.71 258.58 165.76 255.24 189.13 251.9 213.18 251.23 225.87 250.56 233.22 253.23 243.24 257.91 251.92 263.25 265.94 267.93 278.63 267.26 296 266.59 310.03 266.59 343.42 265.92 358.79 261.92 376.82 257.91 388.84 254.57 392.85 248.56 399.53 183.1 384.17 177.76 397.52 169.07 401.53 161.06 399.53 158.39 401.53 155.72 401.53 149.04 400.87 144.36 398.19 140.35 397.52 133.01 396.19 123.66 393.52 120.32 391.51 114.31 388.17" />
        </g>
        <g id="Lanzhou">
            <polygon class="cls-3 subdistrict"
                points="189.11 48.2 195.12 72.92 196.46 90.95 196.46 137.04 195.12 223.2 216.5 223.87 212.49 241.23 203.14 241.23 197.79 241.23 197.13 241.23 187.11 241.23 183.77 241.9 179.09 241.9 174.42 241.9 173.75 241.9 169.07 241.23 167.07 240.56 165.74 240.56 161.06 239.9 155.72 238.56 155.05 238.56 133.01 234.55 143.03 181.79 124.99 98.3 122.99 88.95 121.65 82.27 120.98 77.59 120.32 75.59 119.65 74.92 120.98 74.92 129 73.58 138.35 72.25 139.02 72.25 147.03 70.25 151.71 69.58 152.38 68.91 159.06 67.57 159.72 67.57 163.06 66.91 165.07 66.24 165.74 66.24 166.4 66.24 172.41 64.23 174.42 62.9 185.77 58.89 184.44 48.87 187.11 48.2 189.11 48.2" />
            <polygon class="cls-4 subdistrict"
                points="189.11 48.2 195.12 72.92 196.46 90.95 196.46 137.04 195.12 223.2 216.5 223.87 212.49 241.23 203.14 241.23 197.79 241.23 197.13 241.23 187.11 241.23 183.77 241.9 179.09 241.9 174.42 241.9 173.75 241.9 169.07 241.23 167.07 240.56 165.74 240.56 161.06 239.9 155.72 238.56 155.05 238.56 133.01 234.55 143.03 181.79 124.99 98.3 122.99 88.95 121.65 82.27 120.98 77.59 120.32 75.59 119.65 74.92 120.98 74.92 129 73.58 138.35 72.25 139.02 72.25 147.03 70.25 151.71 69.58 152.38 68.91 159.06 67.57 159.72 67.57 163.06 66.91 165.07 66.24 165.74 66.24 166.4 66.24 172.41 64.23 174.42 62.9 185.77 58.89 184.44 48.87 187.11 48.2 189.11 48.2" />
        </g>
        <g id="Dalong">
            <polygon class="cls-3 subdistrict"
                points="212.49 241.23 213.16 238.56 213.16 235.89 216.5 223.87 209.15 223.87 195.12 223.2 196.46 137.04 196.46 90.95 195.12 72.92 191.78 57.55 189.11 48.2 194.46 46.87 201.8 60.89 201.8 61.56 205.14 60.23 222.51 51.54 233.86 58.22 253.23 68.24 261.92 71.58 271.27 74.25 280.62 82.27 284.63 85.61 285.29 86.28 281.95 92.95 279.28 101.64 278.61 101.64 272.6 112.32 271.27 114.33 265.92 128.35 260.58 141.71 258.58 165.76 255.24 189.13 251.9 213.18 251.23 225.87 250.56 233.22 252.56 239.9 253.23 241.9 212.49 241.23" />
            <polygon class="cls-4 subdistrict"
                points="212.49 241.23 213.16 238.56 213.16 235.89 216.5 223.87 209.15 223.87 195.12 223.2 196.46 137.04 196.46 90.95 195.12 72.92 191.78 57.55 189.11 48.2 194.46 46.87 201.8 60.89 201.8 61.56 205.14 60.23 222.51 51.54 233.86 58.22 253.23 68.24 261.92 71.58 271.27 74.25 280.62 82.27 284.63 85.61 285.29 86.28 281.95 92.95 279.28 101.64 278.61 101.64 272.6 112.32 271.27 114.33 265.92 128.35 260.58 141.71 258.58 165.76 255.24 189.13 251.9 213.18 251.23 225.87 250.56 233.22 252.56 239.9 253.23 241.9 212.49 241.23" />
        </g>
        <g id="Yanping">
            <polygon class="cls-3 subdistrict"
                points="197.13 247.24 197.13 247.91 197.13 250.58 197.13 253.92 197.13 259.27 197.13 265.28 197.79 269.95 198.46 281.98 198.46 286.65 198.46 291.33 198.46 293.33 198.46 294.67 199.13 300.01 199.8 306.69 199.8 311.36 200.47 314.04 201.8 318.04 203.14 323.39 203.14 324.05 205.14 332.74 205.81 336.08 206.48 338.08 205.14 338.75 197.13 339.42 193.12 339.42 193.12 342.09 193.79 345.43 194.46 350.77 194.46 351.44 189.78 354.11 183.77 358.12 183.1 358.79 181.1 360.12 181.1 362.13 181.1 365.46 181.1 368.14 181.76 374.82 181.76 376.15 181.76 377.49 182.43 384.17 183.1 384.17 182.43 384.83 177.76 397.52 169.07 400.87 164.4 400.2 163.73 400.2 163.06 399.53 162.4 399.53 161.06 399.53 158.39 401.53 155.72 401.53 149.04 400.87 144.36 398.19 140.35 397.52 133.01 396.19 123.66 393.52 120.32 391.51 114.31 388.17 118.31 380.16 135.01 348.1 128.33 314.04 128.33 313.37 124.99 280.64 124.99 279.3 133.01 234.55 155.05 238.56 155.72 238.56 161.06 239.9 165.74 240.56 167.07 240.56 169.07 241.23 173.75 241.9 174.42 241.9 179.09 241.9 183.77 241.9 187.11 241.23 197.13 241.23 197.13 243.9 197.13 247.24" />
            <polygon class="cls-4 subdistrict"
                points="197.13 247.24 197.13 247.91 197.13 250.58 197.13 253.92 197.13 259.27 197.13 265.28 197.79 269.95 198.46 281.98 198.46 286.65 198.46 291.33 198.46 293.33 198.46 294.67 199.13 300.01 199.8 306.69 199.8 311.36 200.47 314.04 201.8 318.04 203.14 323.39 203.14 324.05 205.14 332.74 205.81 336.08 206.48 338.08 205.14 338.75 197.13 339.42 193.12 339.42 193.12 342.09 193.79 345.43 194.46 350.77 194.46 351.44 189.78 354.11 183.77 358.12 183.1 358.79 181.1 360.12 181.1 362.13 181.1 365.46 181.1 368.14 181.76 374.82 181.76 376.15 181.76 377.49 182.43 384.17 183.1 384.17 182.43 384.83 177.76 397.52 169.07 400.87 164.4 400.2 163.73 400.2 163.06 399.53 162.4 399.53 161.06 399.53 158.39 401.53 155.72 401.53 149.04 400.87 144.36 398.19 140.35 397.52 133.01 396.19 123.66 393.52 120.32 391.51 114.31 388.17 118.31 380.16 135.01 348.1 128.33 314.04 128.33 313.37 124.99 280.64 124.99 279.3 133.01 234.55 155.05 238.56 155.72 238.56 161.06 239.9 165.74 240.56 167.07 240.56 169.07 241.23 173.75 241.9 174.42 241.9 179.09 241.9 183.77 241.9 187.11 241.23 197.13 241.23 197.13 243.9 197.13 247.24" />
        </g>
        <g id="Jiancheng">
            <polygon class="cls-3 subdistrict"
                points="197.13 258.6 197.13 250.58 197.13 247.91 197.13 247.24 197.13 243.9 197.13 241.23 197.79 241.23 203.14 241.23 212.49 241.23 213.16 238.56 212.49 241.23 253.23 241.9 253.23 243.24 257.91 251.92 263.25 265.94 267.93 278.63 267.26 296 266.59 310.03 266.59 343.42 265.92 358.79 261.92 376.82 257.91 388.84 254.57 392.85 248.56 399.53 183.1 384.17 182.43 384.17 181.76 377.49 181.76 376.15 181.76 374.82 181.1 368.14 181.1 365.46 181.1 362.13 181.1 360.12 183.1 358.79 183.77 358.12 189.78 354.11 194.46 351.44 194.46 350.77 193.79 345.43 193.12 342.09 193.12 339.42 197.13 339.42 205.14 338.75 206.48 338.08 205.81 336.08 205.14 332.74 203.14 324.05 203.14 323.39 201.8 318.04 200.47 314.04 199.8 311.36 199.8 306.69 199.13 300.01 198.46 294.67 198.46 293.33 198.46 291.33 198.46 286.65 198.46 281.98 197.79 269.95 197.13 265.28 197.13 259.27 197.13 258.6" />
            <polygon class="cls-4 subdistrict"
                points="197.13 258.6 197.13 250.58 197.13 247.91 197.13 247.24 197.13 243.9 197.13 241.23 197.79 241.23 203.14 241.23 212.49 241.23 213.16 238.56 212.49 241.23 253.23 241.9 253.23 243.24 257.91 251.92 263.25 265.94 267.93 278.63 267.26 296 266.59 310.03 266.59 343.42 265.92 358.79 261.92 376.82 257.91 388.84 254.57 392.85 248.56 399.53 183.1 384.17 182.43 384.17 181.76 377.49 181.76 376.15 181.76 374.82 181.1 368.14 181.1 365.46 181.1 362.13 181.1 360.12 183.1 358.79 183.77 358.12 189.78 354.11 194.46 351.44 194.46 350.77 193.79 345.43 193.12 342.09 193.12 339.42 197.13 339.42 205.14 338.75 206.48 338.08 205.81 336.08 205.14 332.74 203.14 324.05 203.14 323.39 201.8 318.04 200.47 314.04 199.8 311.36 199.8 306.69 199.13 300.01 198.46 294.67 198.46 293.33 198.46 291.33 198.46 286.65 198.46 281.98 197.79 269.95 197.13 265.28 197.13 259.27 197.13 258.6" />
        </g>
        <text class="cls-5" transform="translate(215.71 163.13)">大龍</text>
        <text class="cls-5" transform="translate(154.78 161.83)">蘭州</text>
        <text class="cls-5" transform="translate(222.71 321.42)">建成</text>
        <text class="cls-5" transform="translate(154.78 319.42)">延平</text>
    </g>
</svg>