<svg width="515" height="499" xmlns="http://www.w3.org/2000/svg" xmlns:xlink="http://www.w3.org/1999/xlink" xml:space="preserve" overflow="hidden"><g transform="translate(-1194 -1769)"><path d="M1210 1896.8C1210 1835.05 1260.05 1785 1321.8 1785L1581.2 1785C1642.95 1785 1693 1835.05 1693 1896.8L1693 2140.2C1693 2201.95 1642.95 2252 1581.2 2252L1321.8 2252C1260.05 2252 1210 2201.95 1210 2140.2Z" stroke="#ED7A23" stroke-width="32.0833" stroke-miterlimit="8" stroke-opacity="0.980392" fill="#FFFFFF" fill-rule="evenodd" fill-opacity="0"/><path d="M1350 2018.5C1350 1962.44 1395.44 1917 1451.5 1917 1507.56 1917 1553 1962.44 1553 2018.5 1553 2074.56 1507.56 2120 1451.5 2120 1395.44 2120 1350 2074.56 1350 2018.5Z" stroke="#ED7A23" stroke-width="32.0833" stroke-miterlimit="8" fill="#FFFFFF" fill-rule="evenodd" fill-opacity="0"/><path d="M1553 1870.5C1553 1857.52 1563.52 1847 1576.5 1847 1589.48 1847 1600 1857.52 1600 1870.5 1600 1883.48 1589.48 1894 1576.5 1894 1563.52 1894 1553 1883.48 1553 1870.5Z" fill="#ED7A23" fill-rule="evenodd"/></g></svg>