<svg id="臺北市_Mouse_Change_有行政區文字_" data-name="臺北市( Mouse Change)(有行政區文字)" xmlns="http://www.w3.org/2000/svg" viewBox="0 0 566.93 566.93"><defs><style>.cls-1{fill:#f8be67;stroke:#fff;stroke-miterlimit:10;fill-rule:evenodd;}.cls-2{font-size:12px;fill:#fff;font-family:MicrosoftJhengHeiUIBold, Microsoft JhengHei UI;}</style></defs><path id="文山" class="cls-1" d="M275.7,411l3.61-1.26,2.65,1.67,2.5-1,1.39-3.48,5.15-.83,6.39,6.39,2.79,1,2.36-1.81L311,407l.42-3.34,5,.42,1.53-1.53L321,403l.83,1.11,1.67,1.25,1.11.56,3.2-.56,13.07-2.64,11.13-1.53-.7,3.34-.55,3.06-1,3.06.42,4.59s-.14,2.84.14,3.2,3.43,1.11,3.62,1.25,2.5,3.2,2.5,3.2a3.85,3.85,0,0,1,.7,1,2.62,2.62,0,0,1,.14.7l-.14.83-.7,3.48-.42,1.67-1,1.53-.42.27-.28.42-.13.42-.28,1v1.39l.14.42.14.42.13.14s.2-.38.42.13a24.58,24.58,0,0,1,.56,2.93l1,.83,1.25.56s1.64.48,1.81.55.14.14.14.14l-.14,1.25V444a5.71,5.71,0,0,1,.28,1,1.39,1.39,0,0,1-.14.69,2.92,2.92,0,0,1-.56.56,2.28,2.28,0,0,1-.83.28l-.7.28-.55.69.14,4.45.14,1.25V455l.14.42a2.44,2.44,0,0,1,.27.83l.14,1.26s.13.7.14,1a2.18,2.18,0,0,1-.14.7s-.42.67-.55.83a9.63,9.63,0,0,0-1.26,1.67,1.53,1.53,0,0,0,.42,1l5.29,3.06s3.53,2.44,3.89,2.51,4-.28,4-.28,4.15,0,4.87,0a34.24,34.24,0,0,1,4.45,1.25c.53.17,8.35,7.57,8.35,8.48s-24,10.14-30.56,13.13c-1.26.58-1.75.73-2.71.4-6.11-2.06-33.14-9.82-34.05-9.91s-1.39,1.53-1.39,1.53l-.28.55L316.86,485s-1.14,1.53-1.8,1.25a9.88,9.88,0,0,0-1.26-.41,6.47,6.47,0,0,0-1.53-.42c-1-.16-13.68.12-14.46-.56s-3.84-9.87-5.42-12-1.86-1.81-3.34-4.59-2.23-4.59-2.23-4.59a20.59,20.59,0,0,1-1.67-5.42c-.14-2.12,1.59-4.95,1.53-6.54s-2.49-3.54-3.33-4.31-.94-.87-1.53.14-.28,3.75-1.39,4.87-1,.83-1,.83l-2.22.84a5.9,5.9,0,0,1-2.23.28,5.21,5.21,0,0,1-1.81-.7,2.25,2.25,0,0,1-1.11-1.39c-.27-1-.29-.44-.28-1.25a5.23,5.23,0,0,1,.7-1.95s.3-.17.28-1.11-6.26-1.11-6.26-1.11-5.2-.15-5.84-1.39a4,4,0,0,1-.14-2.79l.28-1.39.14-1.25s-.45-4.85-2.09-4.59-1.81,1-1.81,1L255,440.1s-1.06,1.54-2.09,1.11-.7-2.08-.7-2.08a29.26,29.26,0,0,0,.42-3.48c.06-1.54-1-8.62-1-8.62l.14-.84.27-.69,1.26-1.53.27-.28.42-.42.42-.27.56-.56s.65-.25.83-1.95-2.64-7.23-2.64-7.23l-1-1.53-.41-.69,6.67-3.06.7,2.08.55,1.53.28.84,7.51-1.12,2.09,1.67Z"/><polygon id="信義" class="cls-1" points="289.32 351.44 298.78 346.16 307.4 343.38 322.98 343.51 323.81 346.71 323.68 350.19 330.77 356.73 333.41 356.87 337.58 363.96 341.34 372.58 340.37 375.5 335.78 378.84 332.44 383.01 328.96 394.42 323.68 397.75 320.62 402.62 317.56 402.2 316.03 403.73 311.02 403.32 310.6 406.65 302.12 411.38 299.06 407.49 298.23 406.51 298.23 403.59 294.19 399.28 288.07 391.22 281.95 384.68 289.19 376.34 289.46 370.22 289.32 355.89 289.32 351.44"/><path id="大安" class="cls-1" d="M269.28,352.05c.53.06,16.76-.79,17.56-.91a17.57,17.57,0,0,1,3.44-.51c.49.15.14,20.33.14,20.33l-.27,6.12-7.24,8.35L289,392l6.12,8.06,4,4.31v2.92l3.9,4.87-2.37,1.81-2.78-1-6.39-6.4-5.15.83L285,410.88l-2.5,1-2.65-1.67-9.73,3.2-1.95-1.67-7.65,1.12L259,408.38l-.42-1.39-.27-.7-2.09-2.64-7.37-8.07-7.65-7.65-5.56-8.06,1-5.57,1.81-3.75,1.67-2.64,3.75,1.94,3.2.7,5.43.41.41-19.74,3.34.13,2,.16,3.89.23,3.48-.13,2.82-.16A1.59,1.59,0,0,0,269.28,352.05Z"/><polygon id="中正" class="cls-1" points="252.88 350.3 252.46 371.1 247.04 370.68 243.84 369.98 240.08 368.04 238.41 370.68 236.61 374.43 235.63 380 241.2 388.06 248.84 395.71 256.22 403.78 258.3 406.42 259 408.51 252.32 411.57 251.07 410.87 249.82 410.73 248.43 410.45 246.06 409.2 243.7 407.53 242.03 405.03 239.81 401.69 237.72 398.77 235.77 396.41 233.82 394.74 230.63 393.35 226.73 391.82 223.12 391.26 220.65 389.91 220.37 386.02 215.62 384.6 208.93 377.49 207.8 375.95 207.86 373.5 208.41 372.94 210.64 368.35 211.69 364.53 213.52 358.16 216.56 346.98 216.15 345.42 219.85 343.07 230.01 345.04 231.87 345.65 235.3 345.82 239.94 346.03 244.39 347.51 247.31 348.61 249.06 349.19 252.88 350.3"/><path id="萬華" class="cls-1" d="M216.56,346.71l-2.78,10.16-1.94,7.64-1.12,3.76-2.22,4.59-.56.56-.14,2.78,7.93,8.34,4.73,1.39.28,3.9h-1.81l-1.67.69-5.15,4.87-3.47,4.87-4.59,6.67-10.15,4.31-.84-.14-.42-.27-.41-.56-.42-.56-.56-.83-.69-1.39L189.44,406l-.69-1-1.39-2.09-.42-.7-.42-1-.27-1-.14-1.53v-2l-.14-2.5-.14-1.39v-1.53l.28-2.51.27-1.25-.13-.42-1-2.08-.83-2.37-1.11-2.5-3.06-6.68a23.8,23.8,0,0,1-1.4-3.19c-.12-.72-.55-2.51-.55-2.51a4.53,4.53,0,0,1,0-1.81l.54-1.35.85-2.12,2.36-3.06,3.06-3.06.28-.28a2.37,2.37,0,0,1,1.11-.83c.57-.11,2.49-.34,3.06-.42s6.22.21,7.1,0a51.59,51.59,0,0,0,7.78-4.59c1.33-1.08,4.18-5.29,4.18-5.29l.83-1.53,1.53.7,1.39.42,1.11.27.56.14,2.09.56Z"/><path id="南港" class="cls-1" d="M321.44,400.87l2.22-3.62a42.9,42.9,0,0,0,5.29-3.34c1.33-1.18,2.36-9.37,3.47-11.4a21.36,21.36,0,0,1,3.34-4.17l4.59-3.34a4.68,4.68,0,0,0,1-2.92c0-1.82-3.75-8.63-3.75-8.63s-2.71-6.05-4.17-7.09-.77,1.15-2.64-.14-6.68-4.32-7.1-6.53S323,343,323,343l.27-4.59-.13-1.25,8.76-2.64,7.51-5.43s2.1-4.18,4.59-4.59,5.84,1.95,5.84,1.95H362.6l6.68-3.62,2.64-5,3.48-.28,2.78,1,1.53-.83,4.73,1.67,3.34,4.17.69,1.53.14.7s5.33,3.47,4.27,4.45-1.46,2.71-2.41,2.13-1.91-2-3.39-2.69-1.39.42-1.39.42v.55l.28,1.12.55,1.25s.25.41.56,1-1.25,1.53-1.25,1.53l-1.11.56-2.23,1.53L381,338.84s-1.41,1.56-1.11,2.36,4.42,12.3,4.73,12.8a50.17,50.17,0,0,0,4.17,3.34,42.74,42.74,0,0,0,4.59,3.61c.87.35,6.55,1.95,7.09,2.09s.42,1.53,1,2.22,4.4-1.05,5.14-.83,5.84,3.34,5.84,3.34l8.9,5.28s6.59,3.64,7.79,3.76,10.23,1.3,11.27,1.11,2.92-2.09,2.92-2.09,2.52-3,4.45-3.06,5.73-.32,7.79,1,2.05,10,.13,11.4-5,.42-5,.42l-6.12-1.25s-4.26-.87-6-1.12-6-.24-7.09.56a23.11,23.11,0,0,0-2.51,2.36,11.87,11.87,0,0,1-3.34,1.39c-1.55.3-1.54-.53-1.39-2.22s-.91-2.85-3.06-2.78-1.39,1-2.92,1.67-7.42,2.07-8.62,1a6,6,0,0,1-1.53-1.95s-1.94-2.48-3.62-2.22-1.73.74-2.08,1.81-.16,1.13-.42,3.33a5.64,5.64,0,0,1-2.5,4.32,13.66,13.66,0,0,1-3.62,1.8c-1.22.55-2.32,3.24-4.87,3.2S372.77,390,371.09,390s-1.29,1.53-2.92,2.08-5.17-.27-6.4.56c-2.75,1.85,1.6,6.8-2.23,6.95l-3.33.14-4.59.56-11.13,1.53-13.07,2.64-3.2.56-1.11-.56-1.67-1.25Z"/><path id="內湖" class="cls-1" d="M281.38,271.94c1.09-1.3,8.29-9.27,10-9.59s10.16-1.32,11.82-2.23,1.51-9.1,3.34-10,7.8-2.27,9.31-2.64,5.69.1,7.37-.7a68.88,68.88,0,0,0,7.1-3.34c2-1.26,1.8-5.58,3.61-6.67s4.5-2.65,5.29-2.65,7.67.15,7.79.42,1,1.84,1.25,2.37-.19,1.16,0,1.8a13.86,13.86,0,0,0,1.67,3.06,4.73,4.73,0,0,0,1,1,15.14,15.14,0,0,0,3.2,1c.43,0,3.49.08,4,.14s2.53,1.66,3.06,1.67a23.23,23.23,0,0,1,3.34.28,35.91,35.91,0,0,1,3.76,1.94c.35.18.77.88,1.39,1.26a13.93,13.93,0,0,0,2.36.83l1.39.14,2.23.42,1.8.69.42.42L380,255l3.2,2.64,2.92,2.22.83.56,1.81,1.81.83.28h.7s1.48-1,2-.14l.59,1.07a11.41,11.41,0,0,1,.24,1.85,14.5,14.5,0,0,1-.83,2.78l.41.42.28.41.14.28.14.56.14.55.42,2.37v.42l.14.27.41.56.84,1,.69.84.84.83s.11.13.41.56a1.2,1.2,0,0,1,.14,1v.42l-.14,2.78L397,285s0-.08,0,.27-.13.42-.13.42a2.86,2.86,0,0,1-.84,1.11c-.53.36-1.63.43-2.08.7a15.91,15.91,0,0,0-1.81,1.81,9.18,9.18,0,0,0-1,1.67l-.41,2.22-.56,2.09s-.12,1.43-.28,2.22-3.61,4-3.61,4l-.28.55-.14.56s-.18-.13.14.69.88,1.14,1,1.81l.14,1-.42,1.94-.27.7-.28.42-.7.55-.28.14-.83.56s-2.44,1.44-2.92,1.67-1.25,2.92-1.25,2.92l-.7,2.5-1.25,1-2.78-1-3.48.28-2.64,5-6.68,3.62H349.81L344,324.51l-4.59,4.59-7.51,5.43-13.08,3.89-9-.42.84-11.54-4.31-8.62,4.31-6.26v-5.7l-.42-7.37-10-3.2-4.31-6.4-3.06-4.73s-3,2.31-3.34.42a48.94,48.94,0,0,0-.83-5.29c-.47-1.65-2.79-1.25-2.79-1.25L282.5,276S280.29,273.24,281.38,271.94Z"/><path id="松山" class="cls-1" d="M269.7,307.43l4,.27,3.9-1.66a11.72,11.72,0,0,1,2.08-.84c1.47-.47-.62-6,1.81-5.56s2.23.41,2.23.41l2.5.7,2.92,1,2.09,1.26,1,.69a9.57,9.57,0,0,0,2.22,1.11,35.53,35.53,0,0,0,3.9,0,8.43,8.43,0,0,0,1.81-1c.75-.57.67-.78,1.53-1.25s1.27-.34,1.8-.84a6.37,6.37,0,0,1,2.09-1.53c.62-.1,1.39-.14,1.39-.14a2,2,0,0,1,1.11.28c.38.31.72,1.78,1,1.95s.95-.41,1.39-.56.28,4.45.28,4.45.28,5.29,0,5.71-4.4,5.2-4.32,6.25,4.28,7.47,4.32,8.63-1.32,11-.84,11.54,8.11.71,9,.42,4.17-2.22,4.31-1.25a10.89,10.89,0,0,1,.14,1.25s.33,4.49-.28,4.59-14.46-.38-15.57-.14A77.27,77.27,0,0,0,298.9,346c-1.06.6-7.34,4.22-9.08,4.77s-16.52,1.37-16.52,1.37-4.87.65-4.85-1,.28-4.45.28-4.45v-6.26l.13-6.12V330l.14-4.59.14-6.82s.05-3.07,0-4.45-2.22-1.5-2.22-1.5-5.58-.86-6.68-1.84-.05-2.25,0-3.61,6.4.14,6.4.14Z"/><path id="中山" class="cls-1" d="M310.31,301.43c-.33.34-1.15.82-1.39.55l-1.14-1.26a1.7,1.7,0,0,0-1-.35,3.62,3.62,0,0,0-1.37.06c-.34.11-2.09,1-2.09,1a8.23,8.23,0,0,0-1.81.83L300,303.51a7.67,7.67,0,0,1-1.81,1l-1.53.41a2.29,2.29,0,0,1-1.39,0l-1-.41-2.23-1.12-6-2.92s-2.2-1.17-2.5-.69l-2.37,3.75-.55.84-1.11.55-2.09.84-1.11.42-.7,1-2.08.28-7-.42s-6.1-.15-6.54-.14-.13,1.53-.13,1.53.07,1.78.13,2.09,1,.41,1,.41a23.11,23.11,0,0,1,2.36.14c.34.11,3.34,1.53,3.34,1.53s2.23.74,2.23,1.25v4.46l-.14,6.81-.14,4.59V334l-.14,6.12v6.26s1,4.33-.28,4.45l-1.53.14-2.22.28h-3.48l-3.9-.14-1.94-.28L251.9,350l-5.56-1.66-2.92-1a38.41,38.41,0,0,0-4.45-1.39l-4.59-.14-1.53-.14-1.26-.28s-2.13.78-1.53-.27a5.64,5.64,0,0,1,1.53-1.67l.56-1.81.56-2.64.14-2.37v-5.14l.14-2.09a19.26,19.26,0,0,0,0-2.64,16.92,16.92,0,0,0-1.4-4.17s-1.39-1.67-1.25-2.79l.14-1.11.14-1.94.56-3.62.55-3.62.14-3.75.84-1.95.83-2.08a40.75,40.75,0,0,1,2.09-4.46c.28-.12,1.11,1.26,1.11,1.26s1.86,3.2,2.36,3.33,1.87-.84,2.37-1.39-2.52-11.29-1.95-11.82,7.79-6,7.79-6l9.32-7.37s5.71-4.45,7.79-4.45,6.25,4,6.25,4,8.34-3.8,9.74-2.64A8.73,8.73,0,0,1,282.5,276l3.33,2.08a6.26,6.26,0,0,1,2.79,1.25c1,1,.83,5.29.83,5.29a10.8,10.8,0,0,1,3.34-.42c1.19.19,3.06,4.73,3.06,4.73s3.11,6,4.31,6.4,9.27,2.53,10,3.2S310.64,301.08,310.31,301.43Z"/><polygon id="大同" class="cls-1" points="209.62 343.43 210.18 342.18 212.82 337.31 211.85 332.02 211.29 327.02 214.07 312 210.59 296 210.46 295.59 213.38 295.31 217.55 294.33 220.47 293.22 227.84 293.08 230.76 294.61 233.54 295.59 235.63 297.25 234.79 299.76 233.54 301.7 232.71 303.79 231.87 305.74 231.73 309.49 231.18 313.11 230.62 316.73 230.48 318.67 230.34 319.79 230.9 321.31 231.59 322.57 232.29 324.79 232.99 326.74 232.99 329.38 232.85 331.47 232.85 336.61 232.71 338.98 232.15 341.62 231.59 343.43 230.06 345.1 220.05 342.87 216.3 345.51 214.21 344.96 213.65 344.82 212.54 344.54 209.62 343.43"/><path id="士林" class="cls-1" d="M347.17,234.39l-7.93-.28s-2.66-.17-5.29,2.65-3,5.76-3.61,6.67-5,2.19-7.1,3.34-16.68,3.34-16.68,3.34-2.34,7.92-3.34,10-11.82,2.23-11.82,2.23l-10,9.59-10.71,2.92-6.25-4-7.79,4.45-9.32,7.37s-7.55,5.16-7.79,6,2.22,11,1.95,11.82-1.69,1.92-2.37,1.39a32.34,32.34,0,0,1-2.92-4.17,10.7,10.7,0,0,0-2.64-2.08s-4.33-1.94-5.7-2.51-6.73-.1-7.37.14l-2.92,1.11-4.17,1s-2.73.79-2.93.28l-.41-1.12s-5.09-11.57-5.57-12.93-9.31-7.51-9.31-7.51l-2.51-2.23-1.94-1.66-1.12-1-2.36-2.64-1.67-1.95-1.95-1.11L177.49,260s-3-2.3-5.84-2.5-11.68-.14-11.68-.14-7.38.24-9.18-.42l-4.17-1.53-2-1.11-1.53-1-2.28-1.47-2.16-1.46a3,3,0,0,1-1.4-2.08,15,15,0,0,1-.28-2.5l1.12-3.34.69-1.81.56-1,1.25-2.51s1-2.85,2-3.75,6.77,5.36,8.06,5.56,8.16,1.53,9.74,1.53,7.19-1.7,7.19-1.7l10.61-3.17s6.12-1.93,7.37-1.8,6.58,1.17,7.79,2.22,2.92,9.88,2.92,9.88-.3,14,.69,15.29,12.46,1.86,14,2.23,3.62,1.79,5.29,1.81,8.45-3.67,10.29-5.15.86-3.87,1.94-6.67a15.92,15.92,0,0,1,4-5.29,52.75,52.75,0,0,1,2.92-6.54c1-1.53,2.78-1.9,4-3.33s-.69-6-.69-6-2.76-.77-1.81-2.92,1.52-5.25,3.61-8.21,7.41-6.09,8.63-8.48-3.37-13.2-2.23-15.16,15.84-8.61,17.39-8.9,2.5,2.08,4.45,1.11,2.61-.49,4.45-2.23,3.41-11.24,2.92-9.59,9.59-20.72,9.59-20.72c1.5-1.12,4.5-1.33,6.4-2s3.83-10.87,4.31-12.94-3.08-5.2-2.5-7.37,0-2.58,1.11-4.17,5.84-3.2,5.84-3.2,2.31-7.31,3.34-9.32-2.07-7-1.11-8.48,7.27-4.89,8.62-6.4,4.65-9.39,6-9.87,8.62,5,9.32,6.81,2.13,31.58.83,33.24c-.56,2.19-8.34,10.71-8.34,10.71l8.2,6,9.6,2.09.7,3.48,2.22,4.17.14,5-.28,1.39L338.13,169,337,170.7l3.76,2.5h1.67l1.11,1,.42,2.51.14,1.53,1.25,1,1.25,1.81.42,2.08-.14,1.26v1l.69.83,1.12.84,1.39,2.08.55.56.28,1.11,2.5,1.12.84.41.69,1.12,1,1.25,1.81.83,1.11.7.55,1,.28.42.7,2.5v1.25l.14.56.14.69.14.56v.84l-.28.69-.14,1,.14.84,1,.28,1.39.14h.7l1,.27.83.28-.13.7-.28.83-.56.84-1,1.11-1,.83-.55.7-.7.69-.41.56-.28.28v.42l-.14.13-.28.28-.28.14h-.55l-.14.28-.28.14-.14-.14-.14-.14-.14-.28-.28-.28-.41-.41-.28.14-.28.14-.28.13h-.14l-.28-.13h-.27l-.28,1.53-.56,1.39v1.94l-.14.28-.14.42-.14.28V221l-.13.42-.28.42-.28.41-.28.42-.14.56-1.11.55h-.14l-.28.28-.28.14-.41,1.53-1.81,4.17-.14,1.39-1.53,2.51-.56.41Z"/><path id="北投" class="cls-1" d="M317.82,94.51c.4,1.11-6,9.87-6,9.87s-8.32,5.18-8.62,6.4,1.29,7.45,1.11,8.48a86.67,86.67,0,0,1-3.34,9.32c-.67,1.3-5.26,2.51-5.84,3.2A8.21,8.21,0,0,0,294,136c.23.68,2.42,6.1,2.5,7.37s-3.51,11.79-4.31,12.94-5.14,1.47-6.4,2-9.59,20.72-9.59,20.72l-2.92,9.59-4.45,2.23a27.33,27.33,0,0,0-4.45-1.11c-2.18-.32-16.89,6.75-17.39,8.9s3,13.11,2.23,15.16-8.63,8.48-8.63,8.48L237,230.39l1.81,2.92s2.23,3.34.69,6a7.51,7.51,0,0,1-4,3.33l-2.92,6.54s-3.66,3.13-4,5.29-.7,5.15-1.94,6.67-8.28,5.79-10.29,5.15-2.86-1.61-5.29-1.81-13.9,1.11-14-2.23-.49-11.85-.69-15.29-2.41-7.88-2.92-9.88-6.13-2-7.79-2.22-7.37,1.8-7.37,1.8l-11.13,2.65-6.67,2.22L150.65,240l-8.06-5.56-1.39-5.56s-1.45-3.79-1-4.32a19.66,19.66,0,0,1,3.06-1.8s4.4-1.33,5-2.09-.14-3.2-.14-3.2l-.14-.55-.14-.56-.14-1c0-.17,0-.31,0-.56l.28-.7.28-.83.28-1,.14-.56.55-2.23a12.16,12.16,0,0,1,.56-1.39l.42-.55,1.11-1.39.14-.14.14-.14.14-.14.13-.14.28-.28.28-.28.42-.55.28-.42.69-1.39.42-.7.55-.69,1.12-.7.83-.55,2.92-3.9,1.81-2.08.56-.56,1.94-1.95.14-.27.42-.7.28-.28.55-.41.28-.28.28-.28v-.14l.14-.28v-.28l1.39-1.67.28-.27.28-.28.27-.28.28-.28.42-.42.7-.69.41-.42h.14l.42-.42.42-.41.55-.42.28-.28.56-.55.28-.42.41-.42.42-.55.14-.28.14-.42.42-.83.27-.84.28-.56.28-.41.83-1,.42-.27.56-.14,1-.14h2.78l.42-.14.28-.14.14-.14.83-1.39.14-.28.14-.42v-.27s.06-.52.14-1.12a3.35,3.35,0,0,1,.83-1.39l.42-.41.28-.42.42-.56.27-.55.42-.7.28-.56.83-1.39.28-.55.7-1.12.14-.27.27-.42.14-.28.42-.69.14-.42.14-.42.69-1.67,1.26-1.39,1.53-1,1.66-1.39.56-.84,1.39-.83,1.67-.84.84-1,1.25-1.11.55-1.39.14-1.95.56-1.39.55-1,1.12-.42,1.39-1.11.14-.7-.28-1.11v-1.53s-.1-2.65,1.11-3.2a6,6,0,0,1,3.34-.14.89.89,0,0,1,.7.7l.27,1.66,1,.95.64.58.42-.27a.67.67,0,0,1,.56,0,.93.93,0,0,1,.41.41l.56.42.69.42.7.41.83.42,1.12.56.55.14.42.14.56.14h.41l1.7-1.06s2.23-1.81,2.89-1.59l.84.28,1.25.42.56.28,1.39.27.69.14.56.14.42.14.41.14.56.28.42.14,1.67.28.13-.14,1.67-3.76.42-2.08.14-.42.83-1.11.42-.84.14-.55V135l.42-.7,1.81-1.8,2.08-2.23L279.71,89l7-7.1,5.84-6.12S317.43,93.4,317.82,94.51Z"/><text id="大安-2" data-name="大安" class="cls-2" transform="translate(261.82 377.32)">大<tspan x="0" y="14.4">安</tspan></text><text id="中正-2" data-name="中正" class="cls-2" transform="translate(220.6 362.53)">中<tspan x="0" y="14.4">正</tspan></text><text id="萬華-2" data-name="萬華" class="cls-2" transform="translate(190.8 374.29)">萬<tspan x="0" y="14.4">華</tspan></text><text id="松山-2" data-name="松山" class="cls-2" transform="translate(283.91 322.83)">松<tspan x="0" y="14.4">山</tspan></text><text id="中山-2" data-name="中山" class="cls-2" transform="translate(242.81 317.56)">中<tspan x="0" y="14.4">山</tspan></text><text id="大同-2" data-name="大同" class="cls-2" transform="translate(215.62 314.79)">大<tspan x="0" y="14.4">同</tspan></text><text class="cls-2" transform="translate(269.08 228)">士林</text><text id="北投-2" data-name="北投" class="cls-2" transform="translate(204.18 191.23)">北投</text><text id="信義-2" data-name="信義" class="cls-2" transform="translate(304.65 368.96)">信<tspan x="0" y="14.4">義</tspan></text><text id="內湖-2" data-name="內湖" class="cls-2" transform="translate(330.81 286.27)">內湖</text><text id="南港-2" data-name="南港" class="cls-2" transform="translate(353.38 364.25)">南港</text><text id="文山-2" data-name="文山" class="cls-2" transform="translate(305.84 450.9)">文山</text></svg>