<svg xmlns="http://www.w3.org/2000/svg" viewBox="0 0 566.93 566.93"><defs><style>.cls-1{fill:#ed7a23;stroke:#fff;stroke-miterlimit:10;fill-rule:evenodd;}</style></defs><g id="臺北市"><path id="文山" class="cls-1" d="M263.55,386.52l3.61-1.25,2.64,1.67,2.51-1,1.39-3.47,5.14-.84,6.4,6.4,2.78,1,2.37-1.8,8.48-4.73.42-3.34,5,.42,1.53-1.53,3.06.41.84,1.12,1.67,1.25,1.11.55,3.2-.55,13.07-2.64,11.13-1.53-.7,3.33-.55,3.06-1,3.06.42,4.59s-.14,2.85.14,3.2,3.42,1.11,3.61,1.25,2.51,3.2,2.51,3.2a3.72,3.72,0,0,1,.69,1c.06.29.18.47.14.69l-.14.84-.69,3.47-.42,1.67-1,1.53-.42.28-.28.42-.14.41-.28,1V411l.14.42.14.41.14.14s.2-.38.42.14a24.49,24.49,0,0,1,.56,2.92l1,.84,1.25.55s1.63.49,1.81.56.14.14.14.14l-.14,1.25v1.11a5.62,5.62,0,0,1,.28,1,1.39,1.39,0,0,1-.14.69,2.92,2.92,0,0,1-.56.56,2.18,2.18,0,0,1-.83.27l-.7.28-.55.7.13,4.45.14,1.25v1.81l.14.42a2.6,2.6,0,0,1,.28.83l.14,1.25s.12.7.14,1a2.41,2.41,0,0,1-.14.69s-.42.67-.56.84a9.89,9.89,0,0,0-1.25,1.66,1.56,1.56,0,0,0,.42,1l5.28,3.06s3.53,2.44,3.9,2.5,4-.28,4-.28,4.15,0,4.87,0a37.72,37.72,0,0,1,4.45,1.25c.52.18,8.34,7.57,8.34,8.49s-24,10.13-30.55,13.13c-1.26.57-1.75.73-2.72.4-6.1-2.07-33.13-9.82-34-9.92s-1.39,1.53-1.39,1.53l-.28.56-1.39,1.67s-1.14,1.52-1.81,1.25a10.61,10.61,0,0,0-1.25-.42,6.83,6.83,0,0,0-1.53-.41c-1-.16-13.68.12-14.46-.56s-3.84-9.87-5.43-12-1.85-1.81-3.33-4.59-2.23-4.59-2.23-4.59a20.73,20.73,0,0,1-1.67-5.42c-.14-2.13,1.59-4.95,1.53-6.54s-2.49-3.54-3.34-4.31-.93-.87-1.53.14-.27,3.75-1.39,4.87-1,.83-1,.83l-2.22.83a5.69,5.69,0,0,1-2.23.28,5.08,5.08,0,0,1-1.81-.69,2.29,2.29,0,0,1-1.11-1.39c-.27-1-.3-.45-.28-1.26a5.24,5.24,0,0,1,.7-1.94s.3-.18.27-1.12-6.25-1.11-6.25-1.11-5.2-.14-5.84-1.39a4,4,0,0,1-.14-2.78l.27-1.39.14-1.25s-.44-4.85-2.08-4.59-1.81,1-1.81,1l-2.09,3.62s-1.06,1.53-2.08,1.11-.7-2.09-.7-2.09a29,29,0,0,0,.42-3.47c.06-1.54-1-8.63-1-8.63l.13-.83.28-.7,1.25-1.53.28-.27.42-.42.42-.28.55-.56s.66-.24.84-1.94-2.64-7.23-2.64-7.23l-1-1.53-.42-.7,6.68-3.06.7,2.09.55,1.53.28.83,7.51-1.11,2.09,1.67Z"/><polygon id="信義" class="cls-1" points="277.17 326.93 286.63 321.64 295.25 318.86 310.83 319 311.66 322.2 311.52 325.68 318.62 332.21 321.26 332.35 325.43 339.44 329.19 348.07 328.21 350.99 323.62 354.32 320.29 358.5 316.81 369.9 311.52 373.24 308.46 378.11 305.4 377.69 303.88 379.22 298.87 378.8 298.45 382.14 289.97 386.87 286.91 382.97 286.07 382 286.07 379.08 282.04 374.77 275.92 366.7 269.8 360.17 277.03 351.82 277.31 345.7 277.17 331.38 277.17 326.93"/><path id="大安" class="cls-1" d="M257.13,327.54c.53,0,16.76-.79,17.56-.91a18.46,18.46,0,0,1,3.44-.52c.49.16.14,20.34.14,20.34l-.28,6.12-7.23,8.34,6.12,6.54,6.12,8.07,4,4.31v2.92l3.9,4.87-2.37,1.8-2.78-1-6.4-6.4-5.14.84-1.39,3.47-2.51,1-2.64-1.67-9.73,3.2-2-1.67-7.65,1.11-1.53-4.45-.42-1.39-.28-.69-2.08-2.65-7.37-8.06L229,363.42l-5.56-8.07,1-5.56,1.81-3.76,1.67-2.64,3.75,1.95,3.2.69,5.42.42.42-19.75,3.34.14L246,327l3.89.22,3.48-.12,2.81-.16A1.68,1.68,0,0,0,257.13,327.54Z"/><polygon id="中正" class="cls-1" points="240.73 325.79 240.31 346.58 234.88 346.16 231.69 345.47 227.93 343.52 226.26 346.16 224.45 349.92 223.48 355.48 229.04 363.55 236.69 371.2 244.06 379.26 246.15 381.91 246.84 383.99 240.17 387.05 238.92 386.36 237.67 386.22 236.28 385.94 233.91 384.69 231.55 383.02 229.88 380.52 227.65 377.18 225.57 374.26 223.62 371.89 221.67 370.22 218.47 368.83 214.58 367.3 210.96 366.75 208.5 365.4 208.22 361.5 203.47 360.09 196.78 352.98 195.65 351.44 195.71 348.99 196.26 348.43 198.49 343.84 199.53 340.02 201.37 333.65 204.41 322.46 204 320.9 207.7 318.56 217.86 320.53 219.72 321.14 223.15 321.31 227.79 321.51 232.24 323 235.16 324.1 236.91 324.67 240.73 325.79"/><path id="萬華" class="cls-1" d="M204.41,322.2l-2.78,10.15L199.68,340l-1.11,3.75-2.22,4.59-.56.56-.14,2.78,7.93,8.35,4.73,1.39.27,3.89h-1.8l-1.67.7L200,370.87l-3.48,4.87-4.58,6.68-10.16,4.31-.83-.14-.42-.28-.42-.55-.41-.56-.56-.84-.7-1.39-1.11-1.53-.69-1-1.39-2.09-.42-.69-.42-1-.28-1-.14-1.53v-1.94l-.13-2.51-.14-1.39v-1.53l.27-2.5.28-1.25-.14-.42-1-2.09-.83-2.36-1.12-2.5L168.11,349a24.26,24.26,0,0,1-1.39-3.2c-.12-.71-.55-2.5-.55-2.5a4.53,4.53,0,0,1,0-1.81l.54-1.35.85-2.13,2.36-3.06,3.06-3.06.28-.27a2.37,2.37,0,0,1,1.11-.84c.57-.1,2.49-.33,3.06-.42s6.21.21,7.09,0a51.65,51.65,0,0,0,7.79-4.59c1.33-1.07,4.17-5.28,4.17-5.28l.84-1.53,1.53.69,1.39.42,1.11.28.56.14,2.08.56Z"/><path id="南港" class="cls-1" d="M309.28,376.35l2.23-3.61a43.5,43.5,0,0,0,5.28-3.34c1.34-1.19,2.37-9.37,3.48-11.41a21.3,21.3,0,0,1,3.34-4.17l4.59-3.34a4.68,4.68,0,0,0,1-2.92c0-1.82-3.75-8.62-3.75-8.62s-2.72-6.05-4.17-7.09-.77,1.14-2.65-.14-6.67-4.32-7.09-6.54-.7-6.67-.7-6.67l.28-4.59-.14-1.25,8.77-2.65,7.51-5.42s2.1-4.19,4.58-4.59,5.85,1.95,5.85,1.95h12.79l6.68-3.62,2.64-5,3.48-.27,2.78,1,1.53-.84,4.73,1.67,3.33,4.18.7,1.53.14.69s5.33,3.48,4.26,4.45-1.45,2.72-2.41,2.14-1.9-2-3.38-2.7-1.39.42-1.39.42v.56l.28,1.11.55,1.25s.25.41.56,1-1.25,1.53-1.25,1.53l-1.12.55-2.22,1.53-1.53,1.25s-1.41,1.57-1.11,2.37,4.42,12.3,4.72,12.79a48.16,48.16,0,0,0,4.18,3.34,42.63,42.63,0,0,0,4.59,3.62c.86.34,6.55,1.95,7.09,2.08s.42,1.54,1,2.23,4.41-1.05,5.15-.84,5.84,3.34,5.84,3.34l8.9,5.29s6.59,3.63,7.79,3.75,10.22,1.31,11.26,1.11,2.92-2.08,2.92-2.08,2.53-3,4.46-3.06,5.73-.33,7.78,1,2.06,10,.14,11.41-5,.41-5,.41l-6.12-1.25s-4.26-.87-6-1.11-6-.24-7.1.56a21.66,21.66,0,0,0-2.5,2.36,12.2,12.2,0,0,1-3.34,1.39c-1.56.3-1.54-.53-1.39-2.22s-.91-2.86-3.06-2.79-1.39,1-2.92,1.67-7.42,2.08-8.62,1a6.1,6.1,0,0,1-1.53-1.95s-1.94-2.49-3.62-2.23-1.73.74-2.08,1.81-.16,1.14-.42,3.34a5.65,5.65,0,0,1-2.5,4.31,13.87,13.87,0,0,1-3.62,1.81c-1.22.55-2.32,3.23-4.87,3.2s-18.21-5.45-19.89-5.43-1.29,1.53-2.92,2.09-5.16-.28-6.39.56c-2.75,1.85,1.59,6.79-2.23,7l-3.34.14-4.59.56-11.12,1.53L315.26,380l-3.19.55L311,380l-1.67-1.25Z"/><path id="內湖" class="cls-1" d="M269.23,247.43c1.09-1.3,8.29-9.27,10-9.6s10.17-1.32,11.83-2.22,1.5-9.1,3.33-10,7.81-2.26,9.32-2.64,5.68.1,7.37-.69a71,71,0,0,0,7.1-3.34c2-1.26,1.8-5.58,3.61-6.68s4.49-2.64,5.29-2.64,7.66.15,7.78.42,1.05,1.84,1.26,2.36-.2,1.16,0,1.81a13.86,13.86,0,0,0,1.67,3.06c.35.35.5.69,1,1a15,15,0,0,0,3.2,1c.43,0,3.48.07,4,.14s2.52,1.66,3.06,1.66a23.23,23.23,0,0,1,3.34.28,33.79,33.79,0,0,1,3.75,1.95c.36.17.77.88,1.39,1.25a13.36,13.36,0,0,0,2.37.84l1.39.13,2.22.42,1.81.7.42.41,2.09,3.48L371,233.1l2.92,2.23.84.56,1.81,1.8.83.28h.7s1.48-1,1.94-.14l.6,1.08a12.52,12.52,0,0,1,.24,1.84,15.12,15.12,0,0,1-.84,2.78l.42.42.28.42.14.28.14.55.14.56.41,2.36v.42l.14.28.42.56.83,1,.7.83.83.84a6.67,6.67,0,0,1,.42.55,1.27,1.27,0,0,1,.14,1V254l-.14,2.78-.14,3.75s0-.08,0,.28-.14.42-.14.42a2.78,2.78,0,0,1-.83,1.11c-.53.36-1.63.42-2.09.7a16.89,16.89,0,0,0-1.81,1.8,9.25,9.25,0,0,0-1,1.67l-.42,2.23-.55,2.08s-.12,1.44-.28,2.23-3.62,4-3.62,4l-.27.56-.14.55s-.19-.12.14.7.87,1.14,1,1.81l.14,1-.42,1.95-.28.69-.28.42-.69.56-.28.14-.83.55s-2.44,1.44-2.92,1.67-1.26,2.92-1.26,2.92l-.69,2.51L366,294l-2.78-1-3.48.27-2.64,5L350.45,302H337.66L331.81,300l-4.58,4.59L319.72,310l-13.08,3.9-9-.42.84-11.54-4.31-8.63,4.31-6.25v-5.71L298,274l-10-3.2-4.32-6.39-3.05-4.73s-3,2.3-3.34.41a46.7,46.7,0,0,0-.84-5.28c-.46-1.65-2.78-1.25-2.78-1.25l-3.34-2.09S268.14,248.73,269.23,247.43Z"/><path id="松山" class="cls-1" d="M257.55,282.91l4,.28,3.89-1.67a11.77,11.77,0,0,1,2.09-.83c1.47-.48-.63-6,1.81-5.57s2.22.42,2.22.42l2.51.7,2.92,1,2.08,1.25,1,.7a9.36,9.36,0,0,0,2.22,1.11,38.26,38.26,0,0,0,3.9,0,8.47,8.47,0,0,0,1.8-1c.75-.58.68-.79,1.53-1.26s1.27-.34,1.81-.83,1.46-1.42,2.09-1.53a12.2,12.2,0,0,1,1.39-.14,2,2,0,0,1,1.11.28c.38.31.72,1.78,1,1.95s1-.41,1.4-.56.27,4.45.27,4.45.29,5.29,0,5.7-4.39,5.2-4.31,6.26,4.28,7.46,4.31,8.62-1.31,11-.83,11.55,8.11.7,9,.41S311,312,311.09,313a10.89,10.89,0,0,1,.14,1.25s.32,4.49-.28,4.59-14.46-.37-15.57-.14a74.07,74.07,0,0,0-8.63,2.79c-1.06.6-7.34,4.21-9.08,4.77s-16.52,1.36-16.52,1.36-4.87.66-4.86-1,.28-4.45.28-4.45v-6.26l.14-6.12v-4.31l.14-4.59L257,294s0-3.08,0-4.45-2.22-1.51-2.22-1.51-5.58-.86-6.68-1.83-.05-2.26,0-3.62,6.4.14,6.4.14Z"/><path id="中山" class="cls-1" d="M298.16,276.91c-.33.35-1.15.83-1.39.56l-1.14-1.27a1.7,1.7,0,0,0-1-.35,4.08,4.08,0,0,0-1.37.06c-.34.11-2.1,1-2.1,1a8.39,8.39,0,0,0-1.8.84L287.87,279a7.77,7.77,0,0,1-1.81,1l-1.53.42a2.37,2.37,0,0,1-1.39,0l-1-.42-2.22-1.11-6-2.92s-2.2-1.18-2.5-.7L269.09,279l-.55.83-1.12.56-2.08.83-1.12.42-.69,1-2.09.28-6.95-.41s-6.11-.15-6.54-.14-.14,1.53-.14,1.53.07,1.78.14,2.08,1,.42,1,.42a20.54,20.54,0,0,1,2.36.14c.34.1,3.34,1.53,3.34,1.53s2.22.73,2.22,1.25v4.45l-.14,6.82-.13,4.58v4.32l-.14,6.12v6.25s1,4.34-.28,4.45l-1.53.14-2.23.28h-3.47l-3.9-.14-1.95-.28-3.33-.83-5.57-1.67-2.92-1a37.79,37.79,0,0,0-4.45-1.39l-4.59-.14-1.53-.14-1.25-.28s-2.14.77-1.53-.28a5.64,5.64,0,0,1,1.53-1.67l.56-1.8.55-2.65.14-2.36V307l.14-2.08a17.68,17.68,0,0,0,0-2.65,17.21,17.21,0,0,0-1.39-4.17s-1.39-1.67-1.25-2.78l.14-1.11.14-2,.55-3.62.56-3.61.14-3.76.83-1.94.84-2.09a38.09,38.09,0,0,1,2.09-4.45c.28-.12,1.11,1.25,1.11,1.25s1.86,3.2,2.36,3.34,1.86-.85,2.37-1.39-2.52-11.29-1.95-11.82,7.79-6,7.79-6l9.32-7.37s5.71-4.45,7.78-4.45,6.26,4,6.26,4,8.34-3.81,9.74-2.64a8.6,8.6,0,0,1,2.08,3.75l3.34,2.09a6.2,6.2,0,0,1,2.78,1.25c1,.95.84,5.28.84,5.28a10.58,10.58,0,0,1,3.34-.41c1.19.18,3.05,4.73,3.05,4.73s3.12,6,4.32,6.39,9.26,2.53,10,3.2S298.49,276.57,298.16,276.91Z"/><polygon id="大同" class="cls-1" points="197.47 318.91 198.02 317.66 200.67 312.79 199.69 307.51 199.14 302.5 201.92 287.48 198.44 271.49 198.3 271.07 201.22 270.79 205.4 269.82 208.32 268.71 215.69 268.57 218.61 270.1 221.39 271.07 223.47 272.74 222.64 275.24 221.39 277.19 220.56 279.28 219.72 281.22 219.58 284.98 219.03 288.6 218.47 292.21 218.33 294.16 218.19 295.27 218.75 296.8 219.44 298.05 220.14 300.28 220.83 302.22 220.83 304.87 220.69 306.95 220.69 312.1 220.56 314.46 220 317.11 219.44 318.91 217.91 320.58 207.9 318.36 204.14 321 202.06 320.44 201.5 320.3 200.39 320.03 197.47 318.91"/><path id="士林" class="cls-1" d="M335,209.88l-7.92-.28s-2.66-.18-5.29,2.64-3,5.77-3.61,6.68-5.05,2.19-7.1,3.34-16.69,3.33-16.69,3.33-2.33,7.92-3.33,10-11.83,2.22-11.83,2.22l-10,9.6-10.71,2.92-6.26-4-7.78,4.45-9.32,7.37s-7.55,5.16-7.79,6,2.22,11,1.95,11.82-1.69,1.91-2.37,1.39a32.34,32.34,0,0,1-2.92-4.17,10.82,10.82,0,0,0-2.64-2.09s-4.34-1.93-5.7-2.5-6.73-.11-7.37.14l-2.92,1.11-4.18,1s-2.72.8-2.92.28l-.41-1.11s-5.1-11.57-5.57-12.94-9.32-7.51-9.32-7.51l-2.5-2.22-1.95-1.67-1.11-1L175.08,242l-1.67-1.94L171.46,239l-6.12-3.48s-3-2.31-5.84-2.51-11.68-.13-11.68-.13-7.38.24-9.18-.42l-4.17-1.53-1.95-1.11-1.53-1-2.28-1.47-2.16-1.45a3.08,3.08,0,0,1-1.4-2.08,15,15,0,0,1-.28-2.51l1.11-3.34.7-1.8.55-1,1.26-2.5s.95-2.85,1.94-3.76,6.78,5.37,8.07,5.57,8.16,1.53,9.74,1.53,7.19-1.71,7.19-1.71L166,211.13s6.12-1.93,7.37-1.81,6.58,1.18,7.79,2.23,2.92,9.87,2.92,9.87-.3,14,.69,15.3,12.46,1.85,14.05,2.23,3.62,1.79,5.28,1.8,8.45-3.66,10.3-5.14.86-3.87,1.94-6.68a16,16,0,0,1,4-5.28,52.75,52.75,0,0,1,2.92-6.54c1-1.54,2.78-1.91,4-3.34s-.7-6-.7-6-2.75-.76-1.8-2.92,1.52-5.24,3.61-8.2,7.41-6.09,8.62-8.49S233.74,175,234.88,173s15.84-8.6,17.38-8.9,2.51,2.09,4.45,1.12,2.62-.5,4.45-2.23,3.41-11.25,2.93-9.6,9.59-20.72,9.59-20.72c1.5-1.11,4.5-1.33,6.4-1.95s3.83-10.86,4.31-12.93-3.08-5.2-2.5-7.37,0-2.59,1.11-4.17,5.84-3.2,5.84-3.2,2.3-7.31,3.34-9.32-2.07-7-1.11-8.48,7.26-4.89,8.62-6.4,4.65-9.39,6-9.88,8.62,5,9.32,6.82,2.12,31.58.83,33.24c-.56,2.18-8.34,10.71-8.34,10.71l8.2,6,9.6,2.08.69,3.48,2.23,4.17.14,5-.28,1.39L326,144.51l-1.11,1.67,3.76,2.51h1.66l1.12,1,.41,2.5.14,1.53,1.26,1,1.25,1.8.41,2.09-.13,1.25v1l.69.84,1.11.83,1.39,2.09.56.56.28,1.11,2.5,1.11.84.42.69,1.11,1,1.25,1.8.84,1.12.69.55,1,.28.41.7,2.51v1.25l.13.55.14.7.14.56v.83l-.28.7-.13,1,.13.83,1,.28,1.39.14h.69l1,.28.83.28-.14.69-.27.84-.56.83-1,1.11-1,.84-.55.69-.7.7-.42.56-.28.27v.42l-.13.14-.28.28-.28.14h-.56l-.14.28-.27.13-.14-.13-.14-.14-.14-.28L346,190l-.42-.42-.27.14-.28.14-.28.14h-.14l-.28-.14h-.28l-.27,1.53-.56,1.39v1.95l-.14.28-.14.41-.14.28v.84l-.14.41-.28.42-.27.42-.28.42-.14.55-1.11.56h-.14l-.28.28-.28.14-.42,1.53-1.8,4.17-.14,1.39-1.53,2.5-.56.42Z"/><path id="北投" class="cls-1" d="M305.67,70c.39,1.12-6,9.88-6,9.88s-8.32,5.17-8.62,6.4,1.29,7.44,1.11,8.48a86.67,86.67,0,0,1-3.34,9.32c-.67,1.29-5.27,2.51-5.84,3.2a8.19,8.19,0,0,0-1.11,4.17c.23.68,2.42,6.1,2.5,7.37s-3.51,11.79-4.31,12.93-5.14,1.47-6.4,1.95-9.59,20.72-9.59,20.72l-2.93,9.6-4.45,2.23a27.64,27.64,0,0,0-4.45-1.12c-2.17-.31-16.88,6.76-17.38,8.9s3,13.11,2.22,15.16-8.62,8.49-8.62,8.49l-3.61,8.2,1.8,2.92s2.24,3.35.7,6a7.56,7.56,0,0,1-4,3.34l-2.92,6.54s-3.66,3.13-4,5.28-.7,5.16-1.94,6.68-8.28,5.79-10.3,5.14-2.85-1.6-5.28-1.8-13.91,1.11-14.05-2.23-.49-11.86-.69-15.3-2.41-7.88-2.92-9.87-6.13-2-7.79-2.23-7.37,1.81-7.37,1.81l-11.13,2.64L148.24,217l-9.74-1.53-8.07-5.57L129,204.34s-1.44-3.78-1-4.31a19.87,19.87,0,0,1,3.06-1.81s4.4-1.32,5-2.08-.14-3.2-.14-3.2l-.14-.56-.14-.56-.14-1c0-.17,0-.31,0-.55l.28-.7.28-.83.27-1,.14-.55.56-2.23a10,10,0,0,1,.56-1.39l.41-.56,1.12-1.39.13-.14.14-.14.14-.13.14-.14.28-.28.28-.28.42-.56.27-.41.7-1.39.42-.7.55-.7,1.11-.69.84-.56,2.92-3.89,1.81-2.09.55-.55,1.95-2,.14-.28.42-.69.28-.28.55-.42.28-.28.28-.28v-.13l.14-.28v-.28l1.39-1.67.28-.28.27-.28.28-.27.28-.28.42-.42.69-.7.42-.41h.14l.42-.42.41-.42.56-.41.28-.28.55-.56.28-.42.42-.41.42-.56.14-.28.14-.41.41-.84.28-.83.28-.56L163,153l.83-1,.42-.28.56-.14,1-.14h2.78l.42-.14.28-.14.13-.13.84-1.39.14-.28.14-.42v-.28s.06-.51.14-1.11a3.35,3.35,0,0,1,.83-1.39l.42-.42.28-.42.41-.55.28-.56.42-.69.28-.56.83-1.39.28-.56.7-1.11.13-.28.28-.42.14-.27.42-.7.14-.42.14-.41.69-1.67,1.25-1.39,1.53-1,1.67-1.39.56-.83,1.39-.84,1.67-.83.83-1,1.25-1.12L188,126l.14-1.94.56-1.4.55-1,1.12-.42,1.39-1.11.13-.69-.27-1.12v-1.53s-.1-2.64,1.11-3.2a5.93,5.93,0,0,1,3.34-.13.86.86,0,0,1,.69.69l.28,1.67,1,.94.64.59.42-.28a.69.69,0,0,1,.55,0,1,1,0,0,1,.42.42l.56.42.69.41.7.42.83.42,1.11.55.56.14.42.14.55.14H206l1.7-1s2.23-1.81,2.89-1.59l.84.28,1.25.41.55.28,1.39.28.7.14.56.14.41.14.42.14.56.27.41.14,1.67.28.14-.14,1.67-3.75.42-2.09.14-.42.83-1.11.42-.83.14-.56v-.69l.42-.7,1.8-1.81,2.09-2.22,40.19-41.31,7-7.09,5.84-6.12S305.27,68.88,305.67,70Z"/></g></svg>